<svg width="1593" height="615" viewBox="0 0 1593 615" fill="none" xmlns="http://www.w3.org/2000/svg">
<g filter="url(#filter0_d_95_27)">
<path d="M31 85C31 52.4152 57.4152 26 90 26H1503C1535.58 26 1562 52.4152 1562 85V519.401C1562 551.986 1535.58 578.401 1503 578.401H90C57.4152 578.401 31 551.986 31 519.401V85Z" fill="white"/>
<path d="M342.664 532.305C343.423 537.546 336.58 540.216 333.589 535.845L144.004 258.751C140.969 254.315 146.114 248.869 150.715 251.647L314.494 350.527C315.776 351.301 316.644 352.609 316.858 354.091L342.664 532.305Z" fill="#01051D"/>
<path d="M145.319 259.277C140.991 256.656 142.849 250 147.909 250H492.957C496.663 250 499.081 253.89 497.441 257.212L464.875 323.212C464.033 324.919 462.295 326 460.392 326H256.896C255.983 326 255.087 325.75 254.306 325.277L145.319 259.277Z" fill="#01051D"/>
<path d="M148.282 131.442C143.626 129.038 145.336 122 150.577 122H556.331C560.182 122 562.587 126.171 560.659 129.504L522.475 195.504C521.581 197.049 519.932 198 518.147 198H278.365C277.566 198 276.779 197.809 276.07 197.442L148.282 131.442Z" fill="#01051D"/>
<path d="M672.659 368V246.5H723.959V263.3H697.409V296.15H719.909V313.4H697.409V368H672.659ZM751.679 368V246.5H776.279V368H751.679ZM809.885 368V246.5H841.385C849.585 246.5 856.585 247.45 862.385 249.35C868.285 251.15 872.785 254.4 875.885 259.1C879.085 263.8 880.685 270.3 880.685 278.6C880.685 283.6 880.235 288.05 879.335 291.95C878.535 295.75 877.035 299.1 874.835 302C872.735 304.8 869.735 307.05 865.835 308.75L882.635 368H857.285L843.335 312.95H834.635V368H809.885ZM834.635 298.25H841.835C845.835 298.25 848.985 297.6 851.285 296.3C853.585 295 855.185 293.05 856.085 290.45C857.085 287.75 857.585 284.45 857.585 280.55C857.585 274.95 856.535 270.7 854.435 267.8C852.435 264.8 848.635 263.3 843.035 263.3H834.635V298.25ZM912.337 368V246.5H965.287V263.6H937.087V295.85H958.837V313.1H937.087V351.2H965.587V368H912.337ZM993.108 368V246.5H1023.86C1029.16 246.5 1034.06 246.95 1038.56 247.85C1043.06 248.75 1047.01 250.35 1050.41 252.65C1053.91 254.95 1056.56 258.15 1058.36 262.25C1060.26 266.25 1061.21 271.5 1061.21 278C1061.21 282.9 1060.51 287.1 1059.11 290.6C1057.71 294 1055.71 296.7 1053.11 298.7C1050.51 300.7 1047.31 302.05 1043.51 302.75C1048.21 303.45 1052.16 305.05 1055.36 307.55C1058.56 310.05 1060.96 313.35 1062.56 317.45C1064.16 321.55 1064.96 326.5 1064.96 332.3C1064.96 338.4 1064.16 343.7 1062.56 348.2C1061.06 352.7 1058.81 356.4 1055.81 359.3C1052.81 362.2 1049.11 364.4 1044.71 365.9C1040.31 367.3 1035.21 368 1029.41 368H993.108ZM1017.86 350.6H1024.76C1030.96 350.6 1035.21 349.05 1037.51 345.95C1039.91 342.85 1041.11 338.2 1041.11 332C1041.11 327.2 1040.56 323.4 1039.46 320.6C1038.36 317.7 1036.56 315.6 1034.06 314.3C1031.66 312.9 1028.41 312.2 1024.31 312.2H1017.86V350.6ZM1017.86 295.55H1024.01C1028.31 295.55 1031.56 294.95 1033.76 293.75C1035.96 292.45 1037.46 290.55 1038.26 288.05C1039.16 285.45 1039.61 282.3 1039.61 278.6C1039.61 274.9 1038.96 271.95 1037.66 269.75C1036.46 267.45 1034.56 265.8 1031.96 264.8C1029.46 263.8 1026.26 263.3 1022.36 263.3H1017.86V295.55ZM1128.14 369.65C1119.24 369.65 1112.19 368.05 1106.99 364.85C1101.79 361.65 1098.04 357.1 1095.74 351.2C1093.54 345.2 1092.44 338.05 1092.44 329.75V284.45C1092.44 276.15 1093.54 269.05 1095.74 263.15C1098.04 257.25 1101.79 252.75 1106.99 249.65C1112.19 246.55 1119.24 245 1128.14 245C1137.14 245 1144.24 246.6 1149.44 249.8C1154.74 252.9 1158.49 257.4 1160.69 263.3C1162.99 269.1 1164.14 276.15 1164.14 284.45V329.75C1164.14 338.05 1162.99 345.2 1160.69 351.2C1158.49 357.1 1154.74 361.65 1149.44 364.85C1144.24 368.05 1137.14 369.65 1128.14 369.65ZM1128.14 351.8C1131.34 351.8 1133.69 351.1 1135.19 349.7C1136.69 348.2 1137.69 346.25 1138.19 343.85C1138.69 341.35 1138.94 338.7 1138.94 335.9V278.45C1138.94 275.65 1138.69 273.05 1138.19 270.65C1137.69 268.25 1136.69 266.35 1135.19 264.95C1133.69 263.45 1131.34 262.7 1128.14 262.7C1125.14 262.7 1122.89 263.45 1121.39 264.95C1119.89 266.35 1118.89 268.25 1118.39 270.65C1117.89 273.05 1117.64 275.65 1117.64 278.45V335.9C1117.64 338.7 1117.84 341.35 1118.24 343.85C1118.74 346.25 1119.74 348.2 1121.24 349.7C1122.74 351.1 1125.04 351.8 1128.14 351.8ZM1185.52 368L1209.52 303.05L1186.42 246.5H1209.82L1224.22 281.45L1236.37 246.5H1257.22L1235.02 308.75L1259.32 368H1236.22L1220.32 329.75L1206.37 368H1185.52Z" fill="#01051D"/>
</g>
<defs>
<filter id="filter0_d_95_27" x="0" y="0" width="1593" height="614.401" filterUnits="userSpaceOnUse" color-interpolation-filters="sRGB">
<feFlood flood-opacity="0" result="BackgroundImageFix"/>
<feColorMatrix in="SourceAlpha" type="matrix" values="0 0 0 0 0 0 0 0 0 0 0 0 0 0 0 0 0 0 127 0" result="hardAlpha"/>
<feMorphology radius="1" operator="dilate" in="SourceAlpha" result="effect1_dropShadow_95_27"/>
<feOffset dy="5"/>
<feGaussianBlur stdDeviation="15"/>
<feComposite in2="hardAlpha" operator="out"/>
<feColorMatrix type="matrix" values="0 0 0 0 0 0 0 0 0 0 0 0 0 0 0 0 0 0 0.15 0"/>
<feBlend mode="normal" in2="BackgroundImageFix" result="effect1_dropShadow_95_27"/>
<feBlend mode="normal" in="SourceGraphic" in2="effect1_dropShadow_95_27" result="shape"/>
</filter>
</defs>
</svg>
